<svg xmlns="http://www.w3.org/2000/svg" viewBox="0 0 140 180" fill="none" aria-hidden="true">
  <defs>
    <linearGradient id="jarShine" x1="0%" y1="0%" x2="100%" y2="100%">
      <stop offset="0%" stop-color="#3a3a3a"/>
      <stop offset="45%" stop-color="#0d0d0d"/>
      <stop offset="100%" stop-color="#1a1a1a"/>
    </linearGradient>
    <linearGradient id="lid" x1="0%" y1="0%" x2="0%" y2="100%">
      <stop offset="0%" stop-color="#2d2d2d"/>
      <stop offset="100%" stop-color="#0a0a0a"/>
    </linearGradient>
  </defs>
  <ellipse cx="70" cy="34" rx="28" ry="10" fill="url(#lid)" stroke="#444" stroke-width="0.5"/>
  <rect x="44" y="38" width="52" height="10" rx="2" fill="#111" stroke="#333" stroke-width="0.5"/>
  <path d="M46 48h48l-4 118q-20 14-40 0L46 48z" fill="url(#jarShine)" stroke="#333" stroke-width="0.75"/>
  <path d="M58 52h24v2H58zm4 6h16v1H62z" fill="#ffffff22"/>
  <!-- crown -->
  <path d="M70 58l-6 8h-5l4 6h14l4-6h-5l-6-8zm-14 4l-4 6 3 5 5-3-4-8zm28 0l4 6-3 5-5-3 4-8z" fill="#fff" opacity="0.95"/>
  <text x="70" y="88" text-anchor="middle" fill="#fff" font-family="system-ui,-apple-system,sans-serif" font-size="11" font-weight="700">CROWN</text>
  <text x="70" y="100" text-anchor="middle" fill="#d4d4d4" font-family="system-ui,-apple-system,sans-serif" font-size="6.5" letter-spacing="0.35em">BREEDS</text>
  <text x="70" y="118" text-anchor="middle" fill="#b0b0b0" font-family="system-ui,-apple-system,sans-serif" font-size="6">Hydrating Formula</text>
  <text x="70" y="128" text-anchor="middle" fill="#b0b0b0" font-family="system-ui,-apple-system,sans-serif" font-size="6">Anti-Aging Properties</text>
  <text x="70" y="142" text-anchor="middle" fill="#999" font-family="system-ui,-apple-system,sans-serif" font-size="5.5">Net Wt. 50g / 1.7 oz</text>
</svg>
